# xmcd CD database file
#
# Track frame offsets:
#	150
#	11967
#	25592
#	37545
#	56545
#	71650
#	89120
#	105977
#	120442
#	133652
#
# Disc length: 2064 seconds
#
# Revision: 1
# Processed by: cddbd v1.5.1PL0 Copyright (c) Steve Scherf et al.
# Submitted via: CDex 1.51
#
DISCID=79080e0a
DTITLE=Ryan Reardon and the Levee Breakers - So Long, Baby
DYEAR=1900
DGENRE=Blues
TTITLE0=You're Comin On Too Strong
TTITLE1=Hale County Road #50
TTITLE2=Suspicion Blues
TTITLE3=Gimmie Back My Coat
TTITLE4=Just A Little Bit
TTITLE5=Don't Take A Fool's Advice
TTITLE6=Head Cleanin' Blues
TTITLE7=Trouble On The Line
TTITLE8=Blue Light Boogie
TTITLE9=So Long, Baby
EXTD=
EXTT0=
EXTT1=
EXTT2=
EXTT3=
EXTT4=
EXTT5=
EXTT6=
EXTT7=
EXTT8=
EXTT9=
PLAYORDER=
